<svg width="44" height="60" viewBox="0 0 44 60" fill="none" xmlns="http://www.w3.org/2000/svg">
<path d="M14.1889 46.3827C14.1889 46.3827 11.9205 47.7136 15.8034 48.1639C20.5074 48.7053 22.9114 48.6278 28.0953 47.6378C28.0953 47.6378 29.4583 48.5 31.3615 49.2469C19.7408 54.2718 5.06135 48.9557 14.1889 46.3827ZM12.7689 39.8253C12.7689 39.8253 10.2246 41.7255 14.1104 42.131C19.1353 42.654 23.1036 42.6968 29.9703 41.3628C29.9703 41.3628 30.9201 42.3342 32.4135 42.8655C18.3633 47.0108 2.71388 43.1924 12.7689 39.8253Z" fill="#5382A1"/>
<path d="M24.74 28.702C27.6034 32.028 23.9877 35.0211 23.9877 35.0211C23.9877 35.0211 31.2582 31.2344 27.9192 26.4923C24.8007 22.0703 22.409 19.8728 35.3558 12.2972C35.3558 12.2972 15.0337 17.4182 24.74 28.702Z" fill="#E76F00"/>
<path d="M40.1095 51.2328C40.1095 51.2328 41.7882 52.6282 38.2606 53.7078C31.553 55.7581 10.3426 56.3772 4.4504 53.7895C2.33239 52.86 6.30442 51.5699 7.55378 51.299C8.85676 51.0139 9.6015 51.0672 9.6015 51.0672C7.24595 49.3929 -5.62371 54.3545 3.0644 55.7752C26.7579 59.652 46.2552 54.0297 40.1095 51.2328ZM15.2797 33.0313C15.2797 33.0313 4.49096 35.6168 11.4593 36.5555C14.4014 36.9529 20.2667 36.8631 25.7301 36.4011C30.195 36.0214 34.6784 35.2133 34.6784 35.2133C34.6784 35.2133 33.104 35.8936 31.965 36.6783C21.009 39.5855 -0.15602 38.233 5.93712 35.2592C11.0901 32.7462 15.2797 33.0313 15.2797 33.0313ZM34.6339 43.9461C45.7714 38.107 40.6218 32.4958 37.0276 33.2518C36.1466 33.4367 35.7538 33.5969 35.7538 33.5969C35.7538 33.5969 36.0809 33.0802 36.7055 32.8565C43.816 30.3342 49.2845 40.2952 34.4101 44.2403C34.4101 44.2405 34.5825 44.0851 34.6339 43.9461Z" fill="#5382A1"/>
<path d="M27.9192 0.0643824C27.9192 0.0643824 34.0872 6.28982 22.0691 15.8622C12.4319 23.5412 19.8715 27.9195 22.0651 32.9218C16.4396 27.801 12.3112 23.2931 15.081 19.0976C19.146 12.9385 30.4077 9.95276 27.9192 0.0643824Z" fill="#E76F00"/>
<path d="M16.3742 59.7684C27.0646 60.459 43.4809 59.3854 43.8697 54.2817C43.8697 54.2817 43.1224 56.2167 35.0346 57.7531C25.9101 59.4854 14.6565 59.2832 7.98169 58.1729C7.98186 58.1729 9.34792 59.3139 16.3742 59.7684Z" fill="#5382A1"/>
</svg>
