<svg width="52" height="52" viewBox="0 0 52 52" fill="none" xmlns="http://www.w3.org/2000/svg">
<g clip-path="url(#clip0_20_162)">
<path d="M25.7798 0.0146484C12.6108 0.0146484 13.433 5.7479 13.433 5.7479L13.4477 11.6877H26.0146V13.471H8.45626C8.45626 13.471 0.0294189 12.5116 0.0294189 25.8511C0.0294189 39.191 7.38458 38.7179 7.38458 38.7179H11.7741V32.5277C11.7741 32.5277 11.5375 25.1437 19.0119 25.1437H31.476C31.476 25.1437 38.4787 25.2573 38.4787 18.3492V6.92718C38.4787 6.92718 39.5423 0.0146484 25.7798 0.0146484ZM18.8504 4.00906C19.1473 4.0088 19.4414 4.06732 19.7159 4.18128C19.9903 4.29525 20.2396 4.46242 20.4496 4.67323C20.6596 4.88404 20.8261 5.13435 20.9396 5.40984C21.0531 5.68532 21.1114 5.98058 21.1112 6.27871C21.1114 6.57684 21.0531 6.8721 20.9396 7.14758C20.8261 7.42307 20.6596 7.67338 20.4496 7.88419C20.2396 8.095 19.9903 8.26217 19.7159 8.37614C19.4414 8.4901 19.1473 8.54863 18.8504 8.54836C18.5534 8.54863 18.2593 8.4901 17.9849 8.37614C17.7105 8.26217 17.4612 8.095 17.2512 7.88419C17.0412 7.67338 16.8747 7.42307 16.7611 7.14758C16.6476 6.8721 16.5893 6.57684 16.5896 6.27871C16.5893 5.98058 16.6476 5.68532 16.7611 5.40984C16.8747 5.13435 17.0412 4.88404 17.2512 4.67323C17.4612 4.46242 17.7105 4.29525 17.9849 4.18128C18.2593 4.06732 18.5534 4.0088 18.8504 4.00906Z" fill="url(#paint0_linear_20_162)"/>
<path d="M26.1538 51.8218C39.3228 51.8218 38.5005 46.0886 38.5005 46.0886L38.4859 40.1489H25.9188V38.3657H43.4771C43.4771 38.3657 51.9039 39.3251 51.9039 25.9852C51.9039 12.6454 44.5488 13.1185 44.5488 13.1185H40.1592V19.3086C40.1592 19.3086 40.3959 26.6926 32.9215 26.6926H20.4573C20.4573 26.6926 13.4546 26.579 13.4546 33.4872V44.9095C13.4546 44.9095 12.3912 51.8218 26.1536 51.8218M33.083 47.8278C32.786 47.8281 32.4919 47.7696 32.2175 47.6556C31.9431 47.5416 31.6937 47.3745 31.4838 47.1636C31.2738 46.9528 31.1073 46.7025 30.9937 46.427C30.8802 46.1516 30.8219 45.8563 30.8222 45.5582C30.8219 45.26 30.8802 44.9647 30.9937 44.6892C31.1072 44.4137 31.2737 44.1634 31.4837 43.9526C31.6937 43.7417 31.943 43.5745 32.2174 43.4606C32.4919 43.3466 32.786 43.288 33.083 43.2883C33.3799 43.288 33.674 43.3466 33.9485 43.4605C34.2229 43.5745 34.4722 43.7417 34.6822 43.9525C34.8922 44.1633 35.0587 44.4136 35.1722 44.6891C35.2857 44.9646 35.344 45.2598 35.3438 45.558C35.344 45.8561 35.2857 46.1513 35.1722 46.4268C35.0587 46.7023 34.8922 46.9526 34.6822 47.1634C34.4722 47.3743 34.2229 47.5414 33.9485 47.6554C33.674 47.7694 33.3799 47.8281 33.083 47.8278Z" fill="url(#paint1_linear_20_162)"/>
</g>
<defs>
<linearGradient id="paint0_linear_20_162" x1="498.541" y1="465.989" x2="3079.24" y2="3010.96" gradientUnits="userSpaceOnUse">
<stop stop-color="#387EB8"/>
<stop offset="1" stop-color="#366994"/>
</linearGradient>
<linearGradient id="paint1_linear_20_162" x1="749.259" y1="809.634" x2="3520.13" y2="3418.8" gradientUnits="userSpaceOnUse">
<stop stop-color="#FFE052"/>
<stop offset="1" stop-color="#FFC331"/>
</linearGradient>
<clipPath id="clip0_20_162">
<rect width="52" height="52" fill="white"/>
</clipPath>
</defs>
</svg>
