<svg width="52" height="52" viewBox="0 0 52 52" fill="none" xmlns="http://www.w3.org/2000/svg">
<path d="M35.75 3.25H42.25V9.75H35.75V3.25ZM35.75 16.25V35.9613C35.7457 37.6278 35.0818 39.2249 33.9033 40.4033C32.7249 41.5818 31.1278 42.2457 29.4612 42.25H29.25V48.75H29.4612C31.1409 48.7509 32.8043 48.4206 34.3563 47.7783C35.9083 47.1359 37.3185 46.1939 38.5062 45.0062C39.6939 43.8185 40.6359 42.4083 41.2783 40.8563C41.9206 39.3043 42.2509 37.6409 42.25 35.9613V16.25H35.75ZM22.75 3.25H29.25V35.75H22.75V3.25Z" fill="#43A047"/>
<path d="M19.2368 19.5C20.1681 19.5013 21.061 19.8718 21.7196 20.5304C22.3782 21.189 22.7487 22.0819 22.75 23.0133V31.0651L21.4987 31.4827C20.0233 31.9748 18.4381 32.0357 16.9293 31.6583C15.8063 31.3782 14.8094 30.7304 14.0973 29.818C13.3853 28.9057 12.999 27.7813 13 26.624V25.7351C13.0013 24.0816 13.6588 22.4962 14.8282 21.3271C15.9976 20.158 17.5832 19.5009 19.2368 19.5ZM19.2368 13C15.8593 13.0009 12.6204 14.3428 10.232 16.7309C7.84366 19.119 6.50129 22.3577 6.5 25.7351V26.624C6.4992 29.2308 7.37018 31.763 8.97439 33.8177C10.5786 35.8724 12.8239 37.3317 15.353 37.9632C18.0611 38.6404 20.9062 38.531 23.5544 37.648L29.25 35.75V23.0133C29.2504 21.6982 28.9917 20.3959 28.4887 19.1808C27.9856 17.9658 27.248 16.8618 26.3181 15.9319C25.3882 15.002 24.2842 14.2644 23.0692 13.7613C21.8541 13.2583 20.5518 12.9996 19.2368 13Z" fill="#43A047"/>
</svg>
