<svg width="58" height="58" viewBox="0 0 58 58" fill="none" xmlns="http://www.w3.org/2000/svg">
<path d="M44.4062 0H13.5938C6.08613 0 0 6.08613 0 13.5938V44.4062C0 51.9139 6.08613 58 13.5938 58H44.4062C51.9139 58 58 51.9139 58 44.4062V13.5938C58 6.08613 51.9139 0 44.4062 0Z" fill="#F0DB4F"/>
<path d="M15.2505 48.469L19.6888 45.7828C20.5452 47.301 21.3242 48.5857 23.1926 48.5857C24.9836 48.5857 26.1128 47.8851 26.1128 45.16V26.6277H31.5634V45.2371C31.5634 50.8823 28.2543 53.452 23.4262 53.452C19.066 53.452 16.5351 51.1938 15.2502 48.4685M34.5239 47.8849L38.9618 45.3154C40.1302 47.2233 41.6486 48.6248 44.3348 48.6248C46.5934 48.6248 48.0334 47.4957 48.0334 45.9383C48.0334 44.0696 46.5539 43.4076 44.0622 42.3178L42.6999 41.7335C38.7674 40.0597 36.1588 37.9572 36.1588 33.5188C36.1588 29.4307 39.2736 26.3159 44.1404 26.3159C47.6054 26.3159 50.0971 27.523 51.8879 30.6766L47.6442 33.4019C46.7096 31.7278 45.6978 31.066 44.1404 31.066C42.544 31.066 41.5317 32.0783 41.5317 33.4019C41.5317 35.037 42.544 35.699 44.8799 36.7115L46.2424 37.2954C50.8754 39.2812 53.484 41.3053 53.484 45.8603C53.484 50.7663 49.6297 53.4524 44.4517 53.4524C39.3905 53.4524 36.12 51.0386 34.5239 47.8849Z" fill="#323330"/>
</svg>
